<?xml version="1.0" encoding="UTF-8"?>
<svg version="1.1" xmlns="http://www.w3.org/2000/svg" width="500" height="500">
<path d="M0 0 C165 0 330 0 500 0 C500 165 500 330 500 500 C335 500 170 500 0 500 C0 335 0 170 0 0 Z " fill="#F6F6F6" transform="translate(0,0)"/>
<path d="M0 0 C0 34.98 0 69.96 0 106 C-3 106 -3 106 -4.95776367 104.36694336 C-5.68713135 103.61550049 -6.41649902 102.86405762 -7.16796875 102.08984375 C-7.97943359 101.26419922 -8.79089844 100.43855469 -9.62695312 99.58789062 C-10.89442383 98.27594727 -10.89442383 98.27594727 -12.1875 96.9375 C-17.42234005 91.56371806 -22.64036435 86.27968367 -28.35083008 81.40771484 C-30.3516705 79.6998176 -32.25116102 77.96744385 -34 76 C-34 75.34 -34 74.68 -34 74 C-40.21075859 79.25123921 -45.96953935 84.86530777 -51.6796875 90.65234375 C-53.51289113 92.4981757 -55.34622826 94.34387507 -57.1796875 96.18945312 C-60.04608607 99.07967626 -62.90989702 101.97244524 -65.77148438 104.86743164 C-68.54818106 107.67591704 -71.33271601 110.47656619 -74.1171875 113.27734375 C-74.97859344 114.15220932 -75.83999939 115.02707489 -76.72750854 115.92845154 C-77.52238678 116.72670853 -78.31726501 117.52496552 -79.13623047 118.34741211 C-79.8360202 119.05465927 -80.53580994 119.76190643 -81.25680542 120.49058533 C-83 122 -83 122 -85 122 C-85.66 123.32 -86.32 124.64 -87 126 C-88.32 126 -89.64 126 -91 126 C-91.17404669 120.87728959 -91.30052903 115.75632723 -91.38452148 110.63134766 C-91.41955827 108.89113358 -91.46720509 107.15112312 -91.52807617 105.41162109 C-91.61375341 102.89890201 -91.65285116 100.38892149 -91.68359375 97.875 C-91.71972275 97.10696045 -91.75585175 96.3389209 -91.79307556 95.54760742 C-91.79709096 89.92635183 -90.12549109 87.17721471 -86.24784851 83.19360352 C-85.1351635 82.10776978 -85.1351635 82.10776978 -84 81 C-82.69212083 79.6556463 -81.38428996 78.31124519 -80.07737923 76.96595001 C-77.55512068 74.38402045 -75.00058116 71.83436633 -72.44921875 69.28125 C-71.34293079 68.17174287 -70.23671562 67.06216315 -69.13056946 65.95251465 C-66.82863641 63.64463533 -64.52468846 61.33878957 -62.21948242 59.03417969 C-59.2608337 56.07563348 -56.30917631 53.11021356 -53.35914898 50.14307404 C-51.0849618 47.85780699 -48.8062835 45.57706015 -46.52628517 43.29759216 C-45.43499006 42.20511512 -44.34532046 41.11101185 -43.25729942 40.01527405 C-41.74481297 38.49304946 -40.22619506 36.97722091 -38.70581055 35.46289062 C-37.84312057 34.59877563 -36.9804306 33.73466064 -36.09159851 32.84436035 C-34 31 -34 31 -32 31 C-32 30.34 -32 29.68 -32 29 C-31.34 29 -30.68 29 -30 29 C-29.34 27.68 -28.68 26.36 -28 25 C-27.34 25 -26.68 25 -26 25 C-25.62875 24.13375 -25.62875 24.13375 -25.25 23.25 C-23.81700012 20.67060021 -22.21575324 18.93878408 -20 17 C-19.34 17 -18.68 17 -18 17 C-17.62875 16.13375 -17.62875 16.13375 -17.25 15.25 C-15.81700012 12.67060021 -14.21575324 10.93878408 -12 9 C-11.34 9 -10.68 9 -10 9 C-9.773125 8.443125 -9.54625 7.88625 -9.3125 7.3125 C-7.05803603 3.3403492 -4.7524671 0 0 0 Z " fill="#3093DF" transform="translate(146,187)"/>
<path d="M0 0 C5.54382362 3.83803174 8.80282112 8.00940375 10.75 14.5 C11.58377464 22.83774636 10.58086351 30.00810692 5.4375 36.8125 C0.49238783 42.062866 -6.03009503 44.17553428 -13.125 44.4375 C-20.06511166 44.12154515 -26.03340585 41.96659415 -31 37 C-35.88099959 30.0907472 -36.72881041 23.26822845 -36 15 C-34.94638868 10.93607064 -33.33659676 7.50489515 -31 4 C-30.34 4 -29.68 4 -29 4 C-29 3.34 -29 2.68 -29 2 C-19.65354585 -3.57192459 -10.06476444 -5.40113437 0 0 Z " fill="#333E43" transform="translate(212,255)"/>
<path d="M0 0 C4.00125 -0.0825 8.0025 -0.165 12.125 -0.25 C13.37555176 -0.28641602 14.62610352 -0.32283203 15.91455078 -0.36035156 C22.25038635 -0.42363847 26.28393639 -0.42227604 31 4 C34.26750233 7.26750233 34.4322439 9.89097108 34.4375 14.4375 C34.45683594 15.54996094 34.47617187 16.66242188 34.49609375 17.80859375 C33.75608865 22.56909902 31.41708658 24.85845804 27.75 27.8125 C27.1725 28.204375 26.595 28.59625 26 29 C26.6496875 30.05960938 27.299375 31.11921875 27.96875 32.2109375 C28.81273123 33.59881775 29.65646864 34.98684629 30.5 36.375 C31.14388672 37.42300781 31.14388672 37.42300781 31.80078125 38.4921875 C35 43.7734375 35 43.7734375 35 46 C31.34155387 47.03108607 28.61480726 47.28234783 25 46 C22.55641094 43.14019523 20.89975202 39.81399962 19.30883789 36.42358398 C18.9761792 35.74884033 18.64352051 35.07409668 18.30078125 34.37890625 C18.02403564 33.7557251 17.74729004 33.13254395 17.4621582 32.49047852 C15.5191877 30.2079253 15.5191877 30.2079253 9 30 C9 35.28 9 40.56 9 46 C6.03 46 3.06 46 0 46 C0 30.82 0 15.64 0 0 Z " fill="#313D42" transform="translate(270,192)"/>
<path d="M0 0 C9 0 9 0 11.20703125 1.7734375 C11.73683594 2.63195312 12.26664063 3.49046875 12.8125 4.375 C13.44800781 5.35855469 14.08351562 6.34210938 14.73828125 7.35546875 C15.08584473 7.92056152 15.4334082 8.4856543 15.79150391 9.06787109 C17.68272079 12.09152572 19.69249904 15.03420125 21.68823242 17.98950195 C24.14436712 21.64706085 26.56891363 25.32574446 29 29 C29 19.43 29 9.86 29 0 C32.3 0 35.6 0 39 0 C39 14.85 39 29.7 39 45 C29 45 29 45 26.15234375 42.17578125 C25.37832017 40.90918203 24.64131083 39.61941867 23.9375 38.3125 C23.11755832 36.9417063 22.29590595 35.57193458 21.47265625 34.203125 C21.06805176 33.50509766 20.66344727 32.80707031 20.24658203 32.08789062 C18.28337523 28.7997307 16.08268216 25.6892706 13.875 22.5625 C12.59625 20.726875 11.3175 18.89125 10 17 C9.67 26.24 9.34 35.48 9 45 C6.03 45 3.06 45 0 45 C0 30.15 0 15.3 0 0 Z " fill="#323D42" transform="translate(232,253)"/>
<path d="M0 0 C9.9 0 19.8 0 30 0 C30 2.64 30 5.28 30 8 C23.07 8 16.14 8 9 8 C9 11.3 9 14.6 9 18 C14.94 18 20.88 18 27 18 C27 20.97 27 23.94 27 27 C21.06 27 15.12 27 9 27 C9 30.3 9 33.6 9 37 C15.93 37 22.86 37 30 37 C30 39.97 30 42.94 30 46 C20.1 46 10.2 46 0 46 C0 30.82 0 15.64 0 0 Z " fill="#3D474C" transform="translate(229,192)"/>
<path d="M0 0 C3.63751311 -0.95684061 6.39900877 -1.18538854 10 0 C13.89929861 3.94840817 16.43109364 9.13521115 19 14 C21.62464567 10.85600955 23.68276531 7.78003841 25.625 4.1875 C27.47956434 1.30049779 28.21541961 0.17382919 31.609375 -0.578125 C34.13169168 -0.56387462 36.51106253 -0.39842675 39 0 C37.29816715 5.11575056 34.32246469 9.35015815 31.375 13.8125 C30.859375 14.60076172 30.34375 15.38902344 29.8125 16.20117188 C28.54558583 18.1367352 27.27467036 20.06953942 26 22 C29.90769786 28.6904524 34.06835975 35.1480284 38.4609375 41.53125 C40 44 40 44 40 46 C36.36368269 46.95652606 33.60205548 47.17577468 30 46 C26.05872894 42.10269418 23.4414985 36.91838103 21 32 C21 31.34 21 30.68 21 30 C20.01 30 19.02 30 18 30 C17.731875 30.70511719 17.46375 31.41023438 17.1875 32.13671875 C15.08284761 37.21142337 12.80438802 41.981572 9 46 C5.49052499 46.92972992 2.53794367 46.70474129 -1 46 C0.56901502 41.51466358 2.90459577 37.81371249 5.5 33.875 C6.10521484 32.94494141 6.10521484 32.94494141 6.72265625 31.99609375 C8.46625749 29.32027006 10.22841762 26.65737357 12 24 C11.67072092 20.33966752 10.53618935 17.87814932 8.49609375 14.86328125 C8.00302734 14.12142578 7.50996094 13.37957031 7.00195312 12.61523438 C6.48568359 11.85533203 5.96941406 11.09542969 5.4375 10.3125 C4.41135846 8.79045363 3.38901835 7.26583521 2.37109375 5.73828125 C1.91661865 5.06837158 1.46214355 4.39846191 0.99389648 3.70825195 C0 2 0 2 0 0 Z " fill="#333E43" transform="translate(398,192)"/>
<path d="M0 0 C9.57 0 19.14 0 29 0 C29 2.64 29 5.28 29 8 C22.07 8 15.14 8 8 8 C8 11.3 8 14.6 8 18 C14.27 18 20.54 18 27 18 C27 20.97 27 23.94 27 27 C20.73 27 14.46 27 8 27 C8 30.63 8 34.26 8 38 C14.93 38 21.86 38 29 38 C29 40.64 29 43.28 29 46 C19.43 46 9.86 46 0 46 C0 30.82 0 15.64 0 0 Z " fill="#2F3B40" transform="translate(358,192)"/>
<path d="M0 0 C9.57 0 19.14 0 29 0 C29 2.64 29 5.28 29 8 C22.4 8 15.8 8 9 8 C9 11.3 9 14.6 9 18 C14.94 18 20.88 18 27 18 C27 20.64 27 23.28 27 26 C21.06 26 15.12 26 9 26 C9 29.63 9 33.26 9 37 C15.6 37 22.2 37 29 37 C29 39.64 29 42.28 29 45 C19.43 45 9.86 45 0 45 C0 30.15 0 15.3 0 0 Z " fill="#364045" transform="translate(282,253)"/>
<path d="M0 0 C2.97 0 5.94 0 9 0 C10.54882427 4.2173218 12.09706799 8.43485613 13.64477539 12.65258789 C14.17130866 14.08721673 14.69800019 15.5217875 15.22485352 16.95629883 C15.98235071 19.01889014 16.73927748 21.08169001 17.49609375 23.14453125 C17.73154404 23.78526077 17.96699432 24.4259903 18.20957947 25.08613586 C19.1734169 27.71469321 20.11457909 30.34373728 21 33 C24.47995343 24.41117877 27.86785492 15.79749785 31.08251953 7.10546875 C32.90407605 2.19184789 32.90407605 2.19184789 34 0 C36.97 0 39.94 0 43 0 C41.29100161 7.92813454 38.38617229 15.41762829 35.5625 23 C35.06667821 24.34100573 34.5712328 25.68215069 34.07617188 27.0234375 C31.73636524 33.35602513 29.37750703 39.68147284 27 46 C23.37 46 19.74 46 16 46 C12.23156462 36.51591339 8.57715854 27.00181129 5.1875 17.375 C4.75328735 16.15151855 4.75328735 16.15151855 4.31030273 14.90332031 C2.59398393 9.98108562 1.19050093 5.07559909 0 0 Z " fill="#323D42" transform="translate(176,192)"/>
<path d="M0 0 C4.94799253 1.73179739 8.39495863 3.23908929 11.046875 7.80078125 C13.05246619 12.42843632 12.91981095 17.65112654 11.08984375 22.32421875 C8.5250464 26.78581157 6.03904106 29.41912437 1 31 C-2.87501812 31.53395919 -6.10324994 31.38723298 -9.75 29.8125 C-12.85485394 27.31136766 -15.21336676 24.57326648 -17 21 C-17.40435212 16.17110257 -17.6440172 11.59309519 -15.8125 7.0625 C-10.93491561 1.51214534 -7.36738009 -0.48310689 0 0 Z " fill="#F3F3F4" transform="translate(202,260)"/>
<path d="M0 0 C11.88 0 23.76 0 36 0 C36 2.64 36 5.28 36 8 C31.71 8 27.42 8 23 8 C23 20.54 23 33.08 23 46 C20.03 46 17.06 46 14 46 C14 33.46 14 20.92 14 8 C9.38 8 4.76 8 0 8 C0 5.36 0 2.72 0 0 Z " fill="#354044" transform="translate(311,192)"/>
<path d="M0 0 C8.25 0 16.5 0 25 0 C25 0.99 25 1.98 25 3 C25.66 3.33 26.32 3.66 27 4 C26.01 4 25.02 4 24 4 C23.23043864 6.34533951 23.23043864 6.34533951 23 9 C23.97850195 10.02104551 24.97980427 11.0206121 26 12 C26.4375 14.4375 26.4375 14.4375 26 17 C24.12972515 19.24432982 22.61113596 20.69443202 20 22 C16.32984725 22.1377685 12.67388652 22.04271961 9 22 C9 17.38 9 12.76 9 8 C7.84188612 9.05270463 7.84188612 9.05270463 7 11 C6.34 11 5.68 11 5 11 C4.67 11.66 4.34 12.32 4 13 C3.34 13 2.68 13 2 13 C1.67 23.56 1.34 34.12 1 45 C3.64 45 6.28 45 9 45 C9 45.33 9 45.66 9 46 C6.03 46 3.06 46 0 46 C0 30.82 0 15.64 0 0 Z " fill="#3C474B" transform="translate(270,192)"/>
<path d="M0 0 C3.3 0 6.6 0 10 0 C10 14.85 10 29.7 10 45 C6.7 45 3.4 45 0 45 C-0.33 43.68 -0.66 42.36 -1 41 C-0.34 41 0.32 41 1 41 C0.67 39.35 0.34 37.7 0 36 C-1.485 36.495 -1.485 36.495 -3 37 C-3.33 35.02 -3.66 33.04 -4 31 C-2.68 30.67 -1.36 30.34 0 30 C0 20.1 0 10.2 0 0 Z " fill="#384348" transform="translate(261,253)"/>
<path d="M0 0 C3.63 0 7.26 0 11 0 C11 0.33 11 0.66 11 1 C7.7 1 4.4 1 1 1 C1 5.62 1 10.24 1 15 C4.63 15 8.26 15 12 15 C12 16.65 12 18.3 12 20 C11.34 19.67 10.68 19.34 10 19 C7.765028 19.54216107 7.765028 19.54216107 5.375 20.4375 C3.93125 20.953125 2.4875 21.46875 1 22 C1 27.28 1 32.56 1 38 C-1.64 38 -4.28 38 -7 38 C-7.049377 33.47934572 -7.08570823 28.95884783 -7.10986328 24.43798828 C-7.11993118 22.89954902 -7.13358646 21.36112893 -7.15087891 19.82275391 C-7.17509317 17.61355867 -7.18647491 15.40461605 -7.1953125 13.1953125 C-7.20563507 12.50567413 -7.21595764 11.81603577 -7.22659302 11.10549927 C-7.22699478 9.40199094 -7.12191026 7.69914057 -7 6 C-6.34 5.34 -5.68 4.68 -5 4 C-3.68 4 -2.36 4 -1 4 C-0.67 2.68 -0.34 1.36 0 0 Z " fill="#2E3A3E" transform="translate(278,199)"/>
<path d="M0 0 C4.62 0 9.24 0 14 0 C14 2.31 14 4.62 14 7 C8.06 7 2.12 7 -4 7 C-4 10.63 -4 14.26 -4 18 C2.6 18 9.2 18 16 18 C16 20.64 16 23.28 16 26 C9.07 25.67 2.14 25.34 -5 25 C-6 21 -6 21 -5 19 C-4.92844013 16.87610306 -4.9160113 14.74999347 -4.9375 12.625 C-4.94652344 11.48289062 -4.95554687 10.34078125 -4.96484375 9.1640625 C-4.97644531 8.11992187 -4.98804688 7.07578125 -5 6 C-5 4.68 -5 3.36 -5 2 C-4.01 2.33 -3.02 2.66 -2 3 C-1.34 2.34 -0.68 1.68 0 1 C0 0.67 0 0.34 0 0 Z " fill="#343E43" transform="translate(295,272)"/>
<path d="M0 0 C6.0546875 -0.1953125 6.0546875 -0.1953125 8 0 C8.66 0.66 9.32 1.32 10 2 C10.33 1.34 10.66 0.68 11 0 C17.75 -0.125 17.75 -0.125 20 1 C20 1.66 20 2.32 20 3 C20.99 3 21.98 3 23 3 C23.33 2.01 23.66 1.02 24 0 C24.99 0 25.98 0 27 0 C27 3.96 27 7.92 27 12 C26.01 12 25.02 12 24 12 C23.34 11.34 22.68 10.68 22 10 C21.01 10.33 20.02 10.66 19 11 C17.29222439 11.04364922 15.58286886 11.03983368 13.875 11 C12.25043671 10.96232897 10.62433238 10.95342416 9 11 C8.67 11.33 8.34 11.66 8 12 C5.32941149 12.14115161 2.67567762 12.04247107 0 12 C0 8.04 0 4.08 0 0 Z " fill="#4B4E50" transform="translate(267,316)"/>
<path d="M0 0 C0 12.21 0 24.42 0 37 C-2.64 37 -5.28 37 -8 37 C-8 25.78 -8 14.56 -8 3 C-7.01 3 -6.02 3 -5 3 C-0.75 0 -0.75 0 0 0 Z " fill="#2D383D" transform="translate(334,200)"/>
<path d="M0 0 C1.9451 2.91765 2.45276317 4.62537285 3 8 C3.33 6.35 3.66 4.7 4 3 C4.99 3 5.98 3 7 3 C7 6.63 7 10.26 7 14 C2.70574125 12.92643531 2.25259529 12.4915227 0 9 C-0.33 10.65 -0.66 12.3 -1 14 C-5.96073422 15.32286246 -10.91111512 15.08893197 -16 15 C-16.76173392 10.6835078 -17.16063604 7.25566547 -16 3 C-13.03 3 -10.06 3 -7 3 C-7 3.66 -7 4.32 -7 5 C-6.34 5 -5.68 5 -5 5 C-4.67 4.01 -4.34 3.02 -4 2 C-2.68 2 -1.36 2 0 2 C0 1.34 0 0.68 0 0 Z " fill="#E9EBEE" transform="translate(428,313)"/>
<path d="M0 0 C12.36413043 -0.49456522 12.36413043 -0.49456522 15.390625 1.859375 C17 4 17 4 17.5 6.5 C16.84884326 9.75578368 15.52871623 10.91752781 13 13 C9.14854957 14.92572521 4.19956748 14.04883218 0 14 C0 9.38 0 4.76 0 0 Z " fill="#EDEFF0" transform="translate(279,200)"/>
<path d="M0 0 C0 34.98 0 69.96 0 106 C-3 106 -3 106 -4.95776367 104.36694336 C-5.68713135 103.61550049 -6.41649902 102.86405762 -7.16796875 102.08984375 C-7.97943359 101.26419922 -8.79089844 100.43855469 -9.62695312 99.58789062 C-10.47193359 98.71326172 -11.31691406 97.83863281 -12.1875 96.9375 C-17.42234005 91.56371806 -22.64036435 86.27968367 -28.35083008 81.40771484 C-30.3516705 79.6998176 -32.25116102 77.96744385 -34 76 C-34 75.34 -34 74.68 -34 74 C-32.68 74.33 -31.36 74.66 -30 75 C-30 75.99 -30 76.98 -30 78 C-29.01 78 -28.02 78 -27 78 C-26.896875 78.639375 -26.79375 79.27875 -26.6875 79.9375 C-26.460625 80.618125 -26.23375 81.29875 -26 82 C-25.01 82.33 -24.02 82.66 -23 83 C-23 83.66 -23 84.32 -23 85 C-22.01 85 -21.02 85 -20 85 C-18.52734375 86.3984375 -18.52734375 86.3984375 -16.9375 88.375 C-9.88077813 97.28160238 -9.88077813 97.28160238 -1 104 C-1 70.67 -1 37.34 -1 3 C-1.99 3.33 -2.98 3.66 -4 4 C-5.21869929 6.50447516 -5.21869929 6.50447516 -6 9 C-7.32 9 -8.64 9 -10 9 C-8.13405729 4.41995879 -5.20913241 0 0 0 Z " fill="#5293C4" transform="translate(146,187)"/>
<path d="M0 0 C0.66 1.32 1.32 2.64 2 4 C3.97536745 3.65213292 3.97536745 3.65213292 6 3 C6.33 2.34 6.66 1.68 7 1 C7.38671875 1.79664063 7.7734375 2.59328125 8.171875 3.4140625 C11.44377494 10.20724151 11.44377494 10.20724151 15.375 16.625 C17 19 17 19 17 21 C13.34155387 22.03108607 10.61480726 22.28234783 7 21 C4.55641094 18.14019523 2.89975202 14.81399962 1.30883789 11.42358398 C0.32278718 9.42354168 -0.55781187 7.70369299 -2 6 C-5.64207615 4.89830982 -5.64207615 4.89830982 -9 5 C-6.14693203 2.67527795 -3.45925163 1.2491742 0 0 Z " fill="#354145" transform="translate(288,217)"/>
<path d="M0 0 C0.66 0.66 1.32 1.32 2 2 C2.99 1.34 3.98 0.68 5 0 C7.04296875 -0.1953125 7.04296875 -0.1953125 9.1875 -0.125 C11.0746875 -0.063125 11.0746875 -0.063125 13 0 C13 0.66 13 1.32 13 2 C11.35 2 9.7 2 8 2 C8 2.99 8 3.98 8 5 C9.65 5 11.3 5 13 5 C13 5.66 13 6.32 13 7 C11.35 7 9.7 7 8 7 C8 7.66 8 8.32 8 9 C9.98 9 11.96 9 14 9 C14 9.66 14 10.32 14 11 C13.29875 10.98839844 12.5975 10.97679687 11.875 10.96484375 C7.33569722 10.92167103 3.03347469 10.91327695 -1.4375 11.75 C-5 12 -5 12 -7.5625 10.5 C-9.58038738 6.99063064 -9.01246398 4.83289936 -8 1 C-5.23749964 -0.38125018 -3.05268901 -0.19079306 0 0 Z " fill="#E8ECEE" transform="translate(380,316)"/>
<path d="M0 0 C0.85078125 0.00322266 1.7015625 0.00644531 2.578125 0.00976562 C3.46757812 0.01814453 4.35703125 0.02652344 5.2734375 0.03515625 C6.170625 0.03966797 7.0678125 0.04417969 7.9921875 0.04882812 C10.21100398 0.06063034 12.42968768 0.0770947 14.6484375 0.09765625 C14.6484375 2.73765625 14.6484375 5.37765625 14.6484375 8.09765625 C14.05828857 8.08718262 13.46813965 8.07670898 12.86010742 8.06591797 C10.18542746 8.02433581 7.51081553 7.99832335 4.8359375 7.97265625 C3.4427832 7.94751953 3.4427832 7.94751953 2.02148438 7.921875 C0.6824707 7.91220703 0.6824707 7.91220703 -0.68359375 7.90234375 C-1.50577393 7.89187012 -2.3279541 7.88139648 -3.17504883 7.87060547 C-5.64577842 7.9576949 -5.64577842 7.9576949 -8.3515625 10.09765625 C-9.3415625 9.76765625 -10.3315625 9.43765625 -11.3515625 9.09765625 C-10.9765625 7.16015625 -10.9765625 7.16015625 -10.3515625 5.09765625 C-9.6915625 4.76765625 -9.0315625 4.43765625 -8.3515625 4.09765625 C-7.6915625 3.10765625 -7.0315625 2.11765625 -6.3515625 1.09765625 C-4.00303722 -0.07660639 -2.61382185 -0.01742548 0 0 Z " fill="#374246" transform="translate(370.3515625,210.90234375)"/>
<path d="M0 0 C7.26 0 14.52 0 22 0 C22 2.31 22 4.62 22 7 C15.4 7 8.8 7 2 7 C1.67 5.68 1.34 4.36 1 3 C0.67 2.67 0.34 2.34 0 2 C0 1.34 0 0.68 0 0 Z " fill="#2F3B41" transform="translate(236,230)"/>
<path d="M0 0 C5.12782839 4.50627344 8.68159947 10.06130626 12 16 C12 16.66 12 17.32 12 18 C8.51969146 18.55712449 5.45459085 18.78653631 2 18 C-0.66561407 15.32917965 -2.35182607 12.37674659 -4 9 C-3.01 8.67 -2.02 8.34 -1 8 C-1 7.34 -1 6.68 -1 6 C-0.34 6 0.32 6 1 6 C0.67 4.02 0.34 2.04 0 0 Z " fill="#364145" transform="translate(426,220)"/>
<path d="M0 0 C0 35.97 0 71.94 0 109 C-0.66 108.67 -1.32 108.34 -2 108 C-1.67 73.02 -1.34 38.04 -1 2 C-3.69652403 3.61791442 -6.38348441 5.25565627 -9 7 C-8.8125 4.625 -8.8125 4.625 -8 2 C-5.11090151 0.40339294 -3.30941204 0 0 0 Z " fill="#E2F6FE" transform="translate(147,185)"/>
<path d="M0 0 C4.62 0 9.24 0 14 0 C14 2.31 14 4.62 14 7 C8.06 7 2.12 7 -4 7 C-4 10.96 -4 14.92 -4 19 C-4.33 19 -4.66 19 -5 19 C-5 13.33333333 -5 7.66666667 -5 2 C-4.01 2.33 -3.02 2.66 -2 3 C-1.34 2.34 -0.68 1.68 0 1 C0 0.67 0 0.34 0 0 Z " fill="#2F3B3F" transform="translate(295,272)"/>
<path d="M0 0 C6.6 0 13.2 0 20 0 C20 2.31 20 4.62 20 7 C14.39 7 8.78 7 3 7 C2.67 6.01 2.34 5.02 2 4 C1.34 3.67 0.68 3.34 0 3 C0 2.01 0 1.02 0 0 Z " fill="#303A3F" transform="translate(236,211)"/>
<path d="M0 0 C6.0546875 -0.1953125 6.0546875 -0.1953125 8 0 C8.66 0.66 9.32 1.32 10 2 C10.33 2 10.66 2 11 2 C11 4.97 11 7.94 11 11 C8.24921116 11.91692961 6.64051087 12.10886083 3.8125 12.0625 C1.9253125 12.0315625 1.9253125 12.0315625 0 12 C0 8.04 0 4.08 0 0 Z " fill="#E7E9EC" transform="translate(267,316)"/>
<path d="M0 0 C9.24 0 18.48 0 28 0 C28 0.33 28 0.66 28 1 C19.42 1.33 10.84 1.66 2 2 C1.67 10.58 1.34 19.16 1 28 C1.99 27.67 2.98 27.34 4 27 C4.66 27 5.32 27 6 27 C6.66 26.67 7.32 26.34 8 26 C8 27.65 8 29.3 8 31 C7.34 31 6.68 31 6 31 C6 31.99 6 32.98 6 34 C4 36 4 36 1 37 C1.20625 37.78375 1.4125 38.5675 1.625 39.375 C1.74875 40.24125 1.8725 41.1075 2 42 C1.34 42.66 0.68 43.32 0 44 C0 29.48 0 14.96 0 0 Z " fill="#2B3238" transform="translate(358,192)"/>
<path d="M0 0 C0 3.41212372 -0.92366655 5.77099964 -2 9 C-2.36920191 10.99369031 -2.71325582 12.99279077 -3 15 C-3.33 14.34 -3.66 13.68 -4 13 C-5.64363134 12.27840576 -7.31050386 11.60648579 -9 11 C-9 11.99 -9 12.98 -9 14 C-9.99 14.33 -10.98 14.66 -12 15 C-12.33 15.99 -12.66 16.98 -13 18 C-14.2065625 18.680625 -14.2065625 18.680625 -15.4375 19.375 C-18.49385497 21.31317632 -18.97944099 22.59813663 -20 26 C-20.33 26.99 -20.66 27.98 -21 29 C-23.92264907 30.03314816 -26.95542026 30.44254174 -30 31 C-24.33425951 24.07189276 -17.96966361 17.85795858 -11.625 11.5625 C-10.49586045 10.43838533 -9.36695222 9.31403826 -8.23828125 8.18945312 C-5.49484812 5.45694765 -2.74830015 2.72760991 0 0 Z " fill="#5795C4" transform="translate(105,225)"/>
<path d="M0 0 C2 2.125 2 2.125 3 5 C2.1875 8.3125 2.1875 8.3125 1 11 C-1.75 11.75 -1.75 11.75 -5 12 C-7.375 10.375 -7.375 10.375 -9 8 C-9.49631357 5.09302053 -9.43323149 3.69798407 -7.875 1.1875 C-5.06992828 -0.58904542 -3.24145792 -0.54024299 0 0 Z " fill="#414547" transform="translate(196,316)"/>
<path d="M0 0 C0.83507667 2.92276836 1.05450569 4.76017496 0.375 7.75 C-1 10 -1 10 -3.375 11 C-6 11 -6 11 -8.3125 10 C-10 8 -10 8 -10.4375 4.4375 C-10.293125 3.303125 -10.14875 2.16875 -10 1 C-6.1496895 -1.56687367 -4.41430237 -0.83288724 0 0 Z " fill="#EAECEE" transform="translate(212,317)"/>
<path d="M0 0 C0.66 0 1.32 0 2 0 C2.125 2.875 2.125 2.875 2 6 C1.34 6.66 0.68 7.32 0 8 C0.66 9.32 1.32 10.64 2 12 C0.68 12 -0.64 12 -2 12 C-2 12.66 -2 13.32 -2 14 C6.25 14 14.5 14 23 14 C23 14.33 23 14.66 23 15 C13.43 15 3.86 15 -6 15 C-5 6 -5 6 -2 3 C-1.34 3 -0.68 3 0 3 C0 2.01 0 1.02 0 0 Z " fill="#464F54" transform="translate(364,223)"/>
<path d="M0 0 C0 0.66 0 1.32 0 2 C0.66 2.33 1.32 2.66 2 3 C1.67 3.66 1.34 4.32 1 5 C1 6.32 1 7.64 1 9 C-4.39460953 11.27141454 -9.26157749 11.20413361 -15 11 C-15 10.67 -15 10.34 -15 10 C-11.535 9.505 -11.535 9.505 -8 9 C-8.3403125 8.1028125 -8.3403125 8.1028125 -8.6875 7.1875 C-9 5 -9 5 -7.8125 3.375 C-5.31336847 1.47910712 -3.19436955 0 0 0 Z " fill="#343F43" transform="translate(209,288)"/>
<path d="M0 0 C0.33 0.66 0.66 1.32 1 2 C0.06553465 4.03144641 -0.93224776 6.03533587 -2 8 C-2.99 8 -3.98 8 -5 8 C-5.33 8.99 -5.66 9.98 -6 11 C-6.99 11.66 -7.98 12.32 -9 13 C-9.72965366 15.56282742 -9.72965366 15.56282742 -10 18 C-10.763125 18.0825 -11.52625 18.165 -12.3125 18.25 C-15.52373261 19.14615794 -16.29374499 20.21611025 -18 23 C-18 22.34 -18 21.68 -18 21 C-18.66 20.67 -19.32 20.34 -20 20 C-19.0479279 18.99403703 -18.08812654 17.99538437 -17.125 17 C-16.59132813 16.443125 -16.05765625 15.88625 -15.5078125 15.3125 C-14 14 -14 14 -12 14 C-12 13.34 -12 12.68 -12 12 C-11.34 12 -10.68 12 -10 12 C-9.34 10.68 -8.68 9.36 -8 8 C-7.34 8 -6.68 8 -6 8 C-5.7525 7.4225 -5.505 6.845 -5.25 6.25 C-3.83316683 3.6997003 -2.12372463 1.98214299 0 0 Z " fill="#5094C9" transform="translate(126,204)"/>
<path d="M0 0 C4 2 4 2 5 4 C5.66 4 6.32 4 7 4 C7.495 3.34 7.99 2.68 8.5 2 C8.995 1.34 9.49 0.68 10 0 C10.66 0 11.32 0 12 0 C12 3.63 12 7.26 12 11 C11.34 11 10.68 11 10 11 C9.67 9.35 9.34 7.7 9 6 C8.01 7.485 8.01 7.485 7 9 C6.34 9 5.68 9 5 9 C4.67 7.68 4.34 6.36 4 5 C3.34 5 2.68 5 2 5 C2 7.31 2 9.62 2 12 C1.34 12 0.68 12 0 12 C0 8.04 0 4.08 0 0 Z " fill="#424548" transform="translate(397,316)"/>
<path d="M0 0 C4 2 4 2 5 4 C5.99 4.33 6.98 4.66 8 5 C8.66 3.35 9.32 1.7 10 0 C10.66 0 11.32 0 12 0 C12 3.63 12 7.26 12 11 C11.34 11 10.68 11 10 11 C9.67 9.35 9.34 7.7 9 6 C8.01 7.485 8.01 7.485 7 9 C6.34 9 5.68 9 5 9 C4.67 7.68 4.34 6.36 4 5 C3.34 5 2.68 5 2 5 C2 6.98 2 8.96 2 11 C1.34 11 0.68 11 0 11 C0 7.37 0 3.74 0 0 Z " fill="#444A4C" transform="translate(251,316)"/>
<path d="M0 0 C0.33 0.99 0.66 1.98 1 3 C0.67 3.66 0.34 4.32 0 5 C-0.15626576 7.47832659 -0.25813198 9.93311331 -0.31640625 12.4140625 C-0.33718735 13.14370209 -0.35796844 13.87334167 -0.37937927 14.62509155 C-0.44481917 16.95829763 -0.50373368 19.29161721 -0.5625 21.625 C-0.60569053 23.20574095 -0.64930499 24.78647039 -0.69335938 26.3671875 C-0.80049481 30.24467504 -0.90177782 34.12227685 -1 38 C-0.34 38 0.32 38 1 38 C1.12375 37.38125 1.2475 36.7625 1.375 36.125 C2 34 2 34 4 32 C5.32 32.66 6.64 33.32 8 34 C7.38125 34.2475 6.7625 34.495 6.125 34.75 C3.64931313 36.20628639 3.04874998 37.37812506 2 40 C0.68 40 -0.64 40 -2 40 C-2.0494186 34.78557724 -2.08572831 29.57129066 -2.10986328 24.35668945 C-2.11992411 22.58257676 -2.13357422 20.80848065 -2.15087891 19.03442383 C-2.17512378 16.48514716 -2.18648218 13.93608963 -2.1953125 11.38671875 C-2.20563507 10.59287277 -2.21595764 9.79902679 -2.22659302 8.98112488 C-2.2273811 5.11776957 -2.19440369 3.29160554 0 0 Z " fill="#4189C0" transform="translate(57,273)"/>
<path d="M0 0 C0.66 0 1.32 0 2 0 C3.38232443 1.62626404 4.71937515 3.2925002 6 5 C6.33 3.35 6.66 1.7 7 0 C7.99 0 8.98 0 10 0 C10 3.63 10 7.26 10 11 C5.70574125 9.92643531 5.25259529 9.4915227 3 6 C2.67 7.65 2.34 9.3 2 11 C1.34 11 0.68 11 0 11 C0 7.37 0 3.74 0 0 Z " fill="#5C6164" transform="translate(425,316)"/>
<path d="M0 0 C0.66 0 1.32 0 2 0 C3.38232443 1.62626404 4.71937515 3.2925002 6 5 C6.45375 4.175 6.9075 3.35 7.375 2.5 C7.91125 1.675 8.4475 0.85 9 0 C9.66 0 10.32 0 11 0 C11 3.63 11 7.26 11 11 C10.34 11 9.68 11 9 11 C8.67 9.68 8.34 8.36 8 7 C7.01 7.66 6.02 8.32 5 9 C4.34 8.01 3.68 7.02 3 6 C2.67 7.65 2.34 9.3 2 11 C1.34 11 0.68 11 0 11 C0 7.37 0 3.74 0 0 Z " fill="#393D3F" transform="translate(317,316)"/>
<path d="M0 0 C0.33 0.99 0.66 1.98 1 3 C-0.98 3 -2.96 3 -5 3 C-5.33 4.65 -5.66 6.3 -6 8 C-3.03 8.495 -3.03 8.495 0 9 C0 8.34 0 7.68 0 7 C-0.99 7 -1.98 7 -3 7 C-3 6.34 -3 5.68 -3 5 C-1.35 5 0.3 5 2 5 C2 6.65 2 8.3 2 10 C-0.4404341 11.53656962 -1.70744102 12.02089707 -4.625 11.8125 C-7 11 -7 11 -9 8 C-8.75 4.375 -8.75 4.375 -8 1 C-5.29120665 -0.35439668 -2.99066732 -0.06501451 0 0 Z " fill="#414446" transform="translate(380,316)"/>
<path d="M0 0 C2.0625 2.1875 2.0625 2.1875 4 5 C3.67 6.65 3.34 8.3 3 10 C-0.63 10 -4.26 10 -8 10 C-7.67 9.01 -7.34 8.02 -7 7 C-6.01 7 -5.02 7 -4 7 C-3.8453125 5.824375 -3.8453125 5.824375 -3.6875 4.625 C-3 2 -3 2 0 0 Z " fill="#3C454A" transform="translate(200,228)"/>
<path d="M0 0 C3.76687864 1.88343932 4.79421646 2.69132469 7 6 C7.33 4.02 7.66 2.04 8 0 C8.66 0 9.32 0 10 0 C10 3.63 10 7.26 10 11 C5.5 8.75 5.5 8.75 4 5 C3.34 5 2.68 5 2 5 C2 6.98 2 8.96 2 11 C1.34 11 0.68 11 0 11 C0 7.37 0 3.74 0 0 Z " fill="#494C4E" transform="translate(345,316)"/>
<path d="M0 0 C1.65 1.65 3.3 3.3 5 5 C3.93453047 7.13093906 2.70840281 8.36587557 1 10 C1.33 10.99 1.66 11.98 2 13 C-1.65316671 11.75023244 -2.78065836 11.32901247 -5 8 C-4.34 7.34 -3.68 6.68 -3 6 C-2.31246699 4.34183216 -1.64438717 2.67540664 -1 1 C-0.67 0.67 -0.34 0.34 0 0 Z " fill="#3C464A" transform="translate(186,283)"/>
<path d="M0 0 C3 1 3 1 6 3 C5.6875 5.875 5.6875 5.875 5 9 C2 11 2 11 -1 11 C-1.33 8.36 -1.66 5.72 -2 3 C-1.34 3 -0.68 3 0 3 C0 2.01 0 1.02 0 0 Z " fill="#2D393F" transform="translate(186,208)"/>
<path d="M0 0 C2.64 0 5.28 0 8 0 C8 0.66 8 1.32 8 2 C6.02 2 4.04 2 2 2 C2 2.99 2 3.98 2 5 C3.65 5 5.3 5 7 5 C7 5.66 7 6.32 7 7 C5.35 7 3.7 7 2 7 C2 7.66 2 8.32 2 9 C3.98 9 5.96 9 8 9 C8 9.66 8 10.32 8 11 C5.36 11 2.72 11 0 11 C0 7.37 0 3.74 0 0 Z " fill="#434648" transform="translate(413,316)"/>
<path d="M0 0 C0.66 0 1.32 0 2 0 C3.32 3.63 4.64 7.26 6 11 C5.01 11 4.02 11 3 11 C3 10.34 3 9.68 3 9 C1.35 9 -0.3 9 -2 9 C-2 9.66 -2 10.32 -2 11 C-2.66 11 -3.32 11 -4 11 C-3.5247412 9.35303396 -3.04468109 7.70745272 -2.5625 6.0625 C-2.29566406 5.14597656 -2.02882813 4.22945313 -1.75390625 3.28515625 C-1 1 -1 1 0 0 Z " fill="#5E6265" transform="translate(363,316)"/>
<path d="M0 0 C0.66 0 1.32 0 2 0 C3.32 3.63 4.64 7.26 6 11 C3.36 10.34 0.72 9.68 -2 9 C-2 9.66 -2 10.32 -2 11 C-2.66 11 -3.32 11 -4 11 C-3.5247412 9.35303396 -3.04468109 7.70745272 -2.5625 6.0625 C-2.29566406 5.14597656 -2.02882813 4.22945313 -1.75390625 3.28515625 C-1 1 -1 1 0 0 Z " fill="#505456" transform="translate(336,316)"/>
<path d="M0 0 C0.66 0 1.32 0 2 0 C2.50367757 1.45706726 3.00282556 2.91570096 3.5 4.375 C3.91765625 5.59316406 3.91765625 5.59316406 4.34375 6.8359375 C5 9 5 9 5 11 C4.34 11 3.68 11 3 11 C3 10.34 3 9.68 3 9 C1.35 9 -0.3 9 -2 9 C-2 9.66 -2 10.32 -2 11 C-2.66 11 -3.32 11 -4 11 C-3.39301257 6.87248551 -1.96189209 3.6678852 0 0 Z " fill="#404547" transform="translate(302,316)"/>
<path d="M0 0 C0.99 0 1.98 0 3 0 C3 3.96 3 7.92 3 12 C2.01 12 1.02 12 0 12 C-0.66 11.34 -1.32 10.68 -2 10 C-2.66 9.67 -3.32 9.34 -4 9 C-3.67 7.02 -3.34 5.04 -3 3 C-2.34 3 -1.68 3 -1 3 C-0.67 2.01 -0.34 1.02 0 0 Z " fill="#A6A7A8" transform="translate(291,316)"/>
<path d="M0 0 C0.99 0.33 1.98 0.66 3 1 C3.94921875 3.28515625 3.94921875 3.28515625 4.6875 6.0625 C5.06455078 7.44115234 5.06455078 7.44115234 5.44921875 8.84765625 C5.63097656 9.55792969 5.81273437 10.26820313 6 11 C5.34 11 4.68 11 4 11 C4 10.34 4 9.68 4 9 C2.35 9 0.7 9 -1 9 C-1 9.66 -1 10.32 -1 11 C-1.66 11 -2.32 11 -3 11 C-2.44894091 7.0507432 -1.61064629 3.65079826 0 0 Z " fill="#3D4143" transform="translate(225,316)"/>
<path d="M0 0 C2.31 0 4.62 0 7 0 C7 0.66 7 1.32 7 2 C5.35 2 3.7 2 2 2 C2 2.99 2 3.98 2 5 C3.65 5 5.3 5 7 5 C7 5.66 7 6.32 7 7 C5.35 7 3.7 7 2 7 C2 7.66 2 8.32 2 9 C3.98 9 5.96 9 8 9 C8 9.66 8 10.32 8 11 C5.36 11 2.72 11 0 11 C0 7.37 0 3.74 0 0 Z " fill="#404447" transform="translate(386,316)"/>
<path d="M0 0 C2.31 0 4.62 0 7 0 C7 0.66 7 1.32 7 2 C5.35 2 3.7 2 2 2 C2 2.99 2 3.98 2 5 C3.65 5 5.3 5 7 5 C7 5.66 7 6.32 7 7 C5.35 7 3.7 7 2 7 C2 7.66 2 8.32 2 9 C3.65 9 5.3 9 7 9 C7 9.66 7 10.32 7 11 C4.69 11 2.38 11 0 11 C0 7.37 0 3.74 0 0 Z " fill="#35383B" transform="translate(267,316)"/>
<path d="M0 0 C0.33 1.32 0.66 2.64 1 4 C0.01 4.33 -0.98 4.66 -2 5 C-3.05021103 6.84971696 -3.05021103 6.84971696 -4 9 C-6.3176177 12.8240692 -8.89656999 14.2902375 -13 16 C-13.99 16 -14.98 16 -16 16 C-10.72 10.72 -5.44 5.44 0 0 Z " fill="#4992CA" transform="translate(74,256)"/>
<path d="M0 0 C1.2065625 0.0309375 1.2065625 0.0309375 2.4375 0.0625 C2.4375 1.0525 2.4375 2.0425 2.4375 3.0625 C1.1175 2.7325 -0.2025 2.4025 -1.5625 2.0625 C-0.30708443 4.57333114 0.93813488 4.93375446 3.4375 6.0625 C3.4375 7.7125 3.4375 9.3625 3.4375 11.0625 C1.4575 11.3925 -0.5225 11.7225 -2.5625 12.0625 C-3.2225 11.0725 -3.8825 10.0825 -4.5625 9.0625 C-1.5925 9.5575 -1.5925 9.5575 1.4375 10.0625 C1.4375 9.0725 1.4375 8.0825 1.4375 7.0625 C0.1175 6.7325 -1.2025 6.4025 -2.5625 6.0625 C-2.94468767 4.40635343 -3.27645102 2.73792976 -3.5625 1.0625 C-2.5625 0.0625 -2.5625 0.0625 0 0 Z " fill="#4E5254" transform="translate(180.5625,315.9375)"/>
<path d="M0 0 C0.763125 0.0825 1.52625 0.165 2.3125 0.25 C1.9825 1.24 1.6525 2.23 1.3125 3.25 C2.19164688 5.9069191 2.19164688 5.9069191 3.3125 8.25 C1.0025 8.25 -1.3075 8.25 -3.6875 8.25 C-4.3475 6.93 -5.0075 5.61 -5.6875 4.25 C-3.34903846 0.31153846 -3.34903846 0.31153846 0 0 Z " fill="#2C383C" transform="translate(199.6875,251.75)"/>
<path d="M0 0 C1.9451 2.91765 2.45276317 4.62537285 3 8 C2.01 8 1.02 8 0 8 C-0.66 7.34 -1.32 6.68 -2 6 C-2.33 7.98 -2.66 9.96 -3 12 C-3.66 12 -4.32 12 -5 12 C-5.66 9.69 -6.32 7.38 -7 5 C-6.01 4.67 -5.02 4.34 -4 4 C-3.67 3.34 -3.34 2.68 -3 2 C-2.34 2 -1.68 2 -1 2 C-0.67 1.34 -0.34 0.68 0 0 Z " fill="#364247" transform="translate(188,202)"/>
<path d="M0 0 C0 3.53951266 -0.71931715 4.36464694 -2.8125 7.125 C-3.33457031 7.82882812 -3.85664062 8.53265625 -4.39453125 9.2578125 C-6 11 -6 11 -9 12 C-10.70993434 13.6222454 -12.37347684 15.29413425 -14 17 C-15.33333333 18.33333333 -16.66666667 19.66666667 -18 21 C-18.66 20.67 -19.32 20.34 -20 20 C-13.4 13.4 -6.8 6.8 0 0 Z " fill="#E2F6FE" transform="translate(99,272)"/>
<path d="M0 0 C0 0.99 0 1.98 0 3 C-1.33333333 4.33333333 -2.66666667 5.66666667 -4 7 C-4.433125 8.3303125 -4.433125 8.3303125 -4.875 9.6875 C-5.24625 10.450625 -5.6175 11.21375 -6 12 C-7.99285937 12.37366113 -9.99363529 12.70740515 -12 13 C-13.1500831 14.96672915 -13.1500831 14.96672915 -14 17 C-16.125 17.75 -16.125 17.75 -18 18 C-18.33 17.34 -18.66 16.68 -19 16 C-18.278125 15.773125 -17.55625 15.54625 -16.8125 15.3125 C-13.46782063 13.75164963 -11.4734726 11.64340584 -9 9 C-7.39988595 7.39179093 -5.79543673 5.78788773 -4.1875 4.1875 C-3.39730469 3.39730469 -2.60710937 2.60710937 -1.79296875 1.79296875 C-1.20128906 1.20128906 -0.60960938 0.60960937 0 0 Z " fill="#E1F3FB" transform="translate(74,297)"/>
<path d="M0 0 C-2 2 -2 2 -4.625 2.125 C-5.40875 2.08375 -6.1925 2.0425 -7 2 C-7 3.65 -7 5.3 -7 7 C-6.401875 7.144375 -5.80375 7.28875 -5.1875 7.4375 C-3.43849596 7.8872439 -1.71322977 8.42892341 0 9 C-3 11 -3 11 -5.5625 10.75 C-8 10 -8 10 -10 8 C-10.3125 4.5 -10.3125 4.5 -10 1 C-6.1496895 -1.56687367 -4.41430237 -0.83288724 0 0 Z " fill="#46484A" transform="translate(212,317)"/>
<path d="M0 0 C0 3.41212372 -0.92366655 5.77099964 -2 9 C-2.36920191 10.99369031 -2.71325582 12.99279077 -3 15 C-3.33 14.34 -3.66 13.68 -4 13 C-6.01669827 11.86649466 -6.01669827 11.86649466 -8 11 C-7.43040847 7.37386801 -6.07625466 5.74482259 -3.4375 3.25 C-2.79683594 2.63640625 -2.15617187 2.0228125 -1.49609375 1.390625 C-1.00238281 0.93171875 -0.50867188 0.4728125 0 0 Z " fill="#4796D4" transform="translate(105,225)"/>
<path d="M0 0 C6.27 0 12.54 0 19 0 C19 2.31 19 4.62 19 7 C14.90953673 6.076347 14.41617338 5.62426007 12 2 C9.11404054 1.41518879 9.11404054 1.41518879 5.875 1.3125 C4.77929688 1.24675781 3.68359375 1.18101562 2.5546875 1.11328125 C1.71164063 1.07589844 0.86859375 1.03851563 0 1 C0 0.67 0 0.34 0 0 Z " fill="#2B3439" transform="translate(239,230)"/>
<path d="M0 0 C1.67542976 0.28604898 3.34385343 0.61781233 5 1 C5 2.98 5 4.96 5 7 C3.1875 7.625 3.1875 7.625 1 8 C0.01 7.34 -0.98 6.68 -2 6 C-1.125 1.125 -1.125 1.125 0 0 Z " fill="#EBEDF0" transform="translate(191,318)"/>
<path d="M0 0 C0.33 0 0.66 0 1 0 C1 1.65 1 3.3 1 5 C0.34 5 -0.32 5 -1 5 C-1 5.99 -1 6.98 -1 8 C-3 10 -3 10 -6 11 C-6 8.03 -6 5.06 -6 2 C-3 1 -3 1 -1 1 C-0.67 0.67 -0.34 0.34 0 0 Z " fill="#2D3A40" transform="translate(365,218)"/>
<path d="M0 0 C0.33 0 0.66 0 1 0 C1 2.31 1 4.62 1 7 C-4.94 7 -10.88 7 -17 7 C-17 10.96 -17 14.92 -17 19 C-17.33 19 -17.66 19 -18 19 C-18 14.71 -18 10.42 -18 6 C-14.43954823 4.81318274 -11.56191663 4.90310168 -7.8125 4.9375 C-6.54019531 4.94652344 -5.26789063 4.95554687 -3.95703125 4.96484375 C-2.49330078 4.98224609 -2.49330078 4.98224609 -1 5 C-1.33 4.01 -1.66 3.02 -2 2 C-1.34 1.34 -0.68 0.68 0 0 Z " fill="#222A2D" transform="translate(308,272)"/>
<path d="M0 0 C1.74627478 2.61941217 2.38722388 4.03824877 3 7 C-3.75 10 -3.75 10 -6 10 C-6.33 8.68 -6.66 7.36 -7 6 C-4 4 -4 4 -2 4 C-1.34 2.68 -0.68 1.36 0 0 Z " fill="#3B474C" transform="translate(192,213)"/>
<path d="M0 0 C1.32 0.33 2.64 0.66 4 1 C2.19047409 2.83635578 0.37759362 4.66916208 -1.4375 6.5 C-1.95376953 7.02464844 -2.47003906 7.54929687 -3.00195312 8.08984375 C-4.31576787 9.41224552 -5.65593505 10.70835568 -7 12 C-7.33 12 -7.66 12 -8 12 C-8.33 10.02 -8.66 8.04 -9 6 C-8.34 6 -7.68 6 -7 6 C-6.67 5.34 -6.34 4.68 -6 4 C-5.01 4.33 -4.02 4.66 -3 5 C-2.67 4.34 -2.34 3.68 -2 3 C-1.34 3 -0.68 3 0 3 C0 2.01 0 1.02 0 0 Z " fill="#3E92D4" transform="translate(82,285)"/>
<path d="M0 0 C1.65 0.33 3.3 0.66 5 1 C0.88380164 5.91935902 -3.40410362 10.52647956 -8 15 C-8.33 13.68 -8.66 12.36 -9 11 C-7.68 10.67 -6.36 10.34 -5 10 C-5 9.34 -5 8.68 -5 8 C-4.34 8 -3.68 8 -3 8 C-3 7.34 -3 6.68 -3 6 C-2.34 5.67 -1.68 5.34 -1 5 C-0.34444881 2.47266765 -0.34444881 2.47266765 0 0 Z " fill="#468EC7" transform="translate(101,264)"/>
<path d="M0 0 C2.97 0.495 2.97 0.495 6 1 C4.125 6.75 4.125 6.75 3 9 C2.01 8.67 1.02 8.34 0 8 C-1.1875 4.9375 -1.1875 4.9375 -2 2 C-1.34 2 -0.68 2 0 2 C0 1.34 0 0.68 0 0 Z " fill="#364247" transform="translate(202,252)"/>
<path d="M0 0 C2.97 0.495 2.97 0.495 6 1 C6.042721 2.66611905 6.04063832 4.33382885 6 6 C5 7 5 7 2.4375 7.0625 C1.2309375 7.0315625 1.2309375 7.0315625 0 7 C0 4.69 0 2.38 0 0 Z " fill="#E4E8EB" transform="translate(280,318)"/>
<path d="M0 0 C2.125 0.375 2.125 0.375 4 1 C3.67 2.98 3.34 4.96 3 7 C0 7 -3 7 -6 7 C-5.67 6.01 -5.34 5.02 -5 4 C-4.34 4 -3.68 4 -3 4 C-2.67 3.34 -2.34 2.68 -2 2 C-1.34 1.34 -0.68 0.68 0 0 Z " fill="#2E3A40" transform="translate(209,205)"/>
<path d="M0 0 C3.7726764 0.53895377 5.68212991 1.99535358 8 5 C7.75 7.25 7.75 7.25 7 9 C7.66 9.33 8.32 9.66 9 10 C8.01 10.33 7.02 10.66 6 11 C4.9944239 9.54550599 3.99569565 8.08627557 3 6.625 C2.443125 5.81289062 1.88625 5.00078125 1.3125 4.1640625 C0 2 0 2 0 0 Z " fill="#3D4449" transform="translate(398,192)"/>
<path d="M0 0 C0 0.99 0 1.98 0 3 C-0.99 3 -1.98 3 -3 3 C-2.01 2.01 -1.02 1.02 0 0 Z M-5 4 C-4.34 4.33 -3.68 4.66 -3 5 C-4.32 7.31 -5.64 9.62 -7 12 C-7.33 11.01 -7.66 10.02 -8 9 C-8.66 9.66 -9.32 10.32 -10 11 C-10.99 10.01 -11.98 9.02 -13 8 C-11.66666667 7.33333333 -10.33333333 6.66666667 -9 6 C-8.29875 5.608125 -7.5975 5.21625 -6.875 4.8125 C-6.25625 4.544375 -5.6375 4.27625 -5 4 Z " fill="#ECEEF0" transform="translate(217,291)"/>
<path d="M0 0 C4 2 4 2 5.25 5.125 C5.4975 6.07375 5.745 7.0225 6 8 C5.34 7.67 4.68 7.34 4 7 C4 6.34 4 5.68 4 5 C3.34 5 2.68 5 2 5 C2 7.31 2 9.62 2 12 C1.34 12 0.68 12 0 12 C0 8.04 0 4.08 0 0 Z " fill="#4D5254" transform="translate(397,316)"/>
<path d="M0 0 C2.97 0 5.94 0 9 0 C9 0.66 9 1.32 9 2 C7.68 2 6.36 2 5 2 C5 4.97 5 7.94 5 11 C4.34 11 3.68 11 3 11 C3 8.03 3 5.06 3 2 C2.01 2 1.02 2 0 2 C0 1.34 0 0.68 0 0 Z " fill="#414647" transform="translate(438,316)"/>
<path d="M0 0 C1.98 0 3.96 0 6 0 C5.67 0.99 5.34 1.98 5 3 C5.33 4.32 5.66 5.64 6 7 C3.03 7 0.06 7 -3 7 C-2.34 6.67 -1.68 6.34 -1 6 C-0.67 5.01 -0.34 4.02 0 3 C0.66 3 1.32 3 2 3 C2.33 2.34 2.66 1.68 3 1 C2.01 0.67 1.02 0.34 0 0 Z " fill="#293338" transform="translate(196,291)"/>
<path d="M0 0 C1 3 1 3 0 6 C-2.06640625 6.73046875 -2.06640625 6.73046875 -4.5625 7.1875 C-5.38878906 7.34605469 -6.21507813 7.50460938 -7.06640625 7.66796875 C-8.02353516 7.83232422 -8.02353516 7.83232422 -9 8 C-3.85714286 1.42857143 -3.85714286 1.42857143 0 0 Z " fill="#4593D0" transform="translate(84,248)"/>
<path d="M0 0 C0.66 0 1.32 0 2 0 C2 2.97 2 5.94 2 9 C3.65 9 5.3 9 7 9 C7 9.66 7 10.32 7 11 C4.69 11 2.38 11 0 11 C0 7.37 0 3.74 0 0 Z " fill="#393B3D" transform="translate(235,316)"/>
<path d="M0 0 C1.32 0.66 2.64 1.32 4 2 C3.34 3.98 2.68 5.96 2 8 C1.34 8 0.68 8 0 8 C-0.33 8.99 -0.66 9.98 -1 11 C-2.00435759 7.23365903 -2.09194379 4.76113972 -1 1 C-0.67 0.67 -0.34 0.34 0 0 Z " fill="#2D393D" transform="translate(211,285)"/>
<path d="M0 0 C0.99 0.99 1.98 1.98 3 3 C2.01 3.78375 1.02 4.5675 0 5.375 C-1.485 6.674375 -1.485 6.674375 -3 8 C-3 8.66 -3 9.32 -3 10 C-3.66 10 -4.32 10 -5 10 C-5.66 8.35 -6.32 6.7 -7 5 C-5.824375 4.87625 -5.824375 4.87625 -4.625 4.75 C-1.85250896 4.27193661 -1.85250896 4.27193661 -0.6875 1.9375 C-0.460625 1.298125 -0.23375 0.65875 0 0 Z " fill="#2C393E" transform="translate(415,215)"/>
<path d="M0 0 C0.66 0.33 1.32 0.66 2 1 C1.484375 1.763125 0.96875 2.52625 0.4375 3.3125 C-0.036875 4.199375 -0.51125 5.08625 -1 6 C-0.67 6.99 -0.34 7.98 0 9 C-3 9 -3 9 -6 8 C-4.55746343 4.63408134 -2.66735273 2.48952921 0 0 Z " fill="#4994CD" transform="translate(134,196)"/>
<path d="M0 0 C1.0625 1.8125 1.0625 1.8125 2 4 C1.67 4.99 1.34 5.98 1 7 C-1.75 7.75 -1.75 7.75 -5 8 C-7.375 6.0625 -7.375 6.0625 -9 4 C-5.88772805 4 -3.05847848 4.45627049 0 5 C0 3.35 0 1.7 0 0 Z " fill="#56585B" transform="translate(196,320)"/>
<path d="M0 0 C0.66 1.32 1.32 2.64 2 4 C3.32 3.34 4.64 2.68 6 2 C5.67 3.65 5.34 5.3 5 7 C4.01 7.33 3.02 7.66 2 8 C1.26676204 10.01508358 1.26676204 10.01508358 1 12 C0.34 11.67 -0.32 11.34 -1 11 C-0.67 7.37 -0.34 3.74 0 0 Z " fill="#E8EAEC" transform="translate(355,316)"/>
<path d="M0 0 C0.66 0 1.32 0 2 0 C2 3.63 2 7.26 2 11 C0.68 10.34 -0.64 9.68 -2 9 C-1.34 6.03 -0.68 3.06 0 0 Z " fill="#323639" transform="translate(353,316)"/>
<path d="M0 0 C0.66 0 1.32 0 2 0 C2 3.63 2 7.26 2 11 C1.34 11 0.68 11 0 11 C0 9.02 0 7.04 0 5 C-0.66 5 -1.32 5 -2 5 C-1.34 3.35 -0.68 1.7 0 0 Z " fill="#3F4044" transform="translate(261,316)"/>
<path d="M0 0 C0.66 0 1.32 0 2 0 C2 0.99 2 1.98 2 3 C1.34 3 0.68 3 0 3 C-0.33 4.32 -0.66 5.64 -1 7 C1.31 7 3.62 7 6 7 C6 7.33 6 7.66 6 8 C2.7 8 -0.6 8 -4 8 C-2.87548273 5.0280615 -1.77706209 2.66559313 0 0 Z " fill="#4E5559" transform="translate(401,230)"/>
<path d="M0 0 C0.66 0 1.32 0 2 0 C2.66 2.31 3.32 4.62 4 7 C2.35 7 0.7 7 -1 7 C-1.625 5.1875 -1.625 5.1875 -2 3 C-1.34 2.01 -0.68 1.02 0 0 Z " fill="#6B6F73" transform="translate(302,316)"/>
<path d="M0 0 C2.31 0 4.62 0 7 0 C6.04578192 1.14926266 5.08647955 2.29430541 4.125 3.4375 C3.59132813 4.07558594 3.05765625 4.71367187 2.5078125 5.37109375 C1 7 1 7 -1 8 C-0.67 5.36 -0.34 2.72 0 0 Z " fill="#4591CC" transform="translate(66,298)"/>
<path d="M0 0 C0.66 0.33 1.32 0.66 2 1 C1.67 1.99 1.34 2.98 1 4 C-0.1446875 4.12375 -0.1446875 4.12375 -1.3125 4.25 C-4.52373261 5.14615794 -5.29374499 6.21611025 -7 9 C-7 8.34 -7 7.68 -7 7 C-7.66 6.67 -8.32 6.34 -9 6 C-6.45368965 3.02930459 -3.57769851 1.5224249 0 0 Z " fill="#4294D1" transform="translate(115,218)"/>
<path d="M0 0 C1.65 0.33 3.3 0.66 5 1 C4.01 2.485 4.01 2.485 3 4 C2.34 4 1.68 4 1 4 C0.34 5.32 -0.32 6.64 -1 8 C-1.99 7.34 -2.98 6.68 -4 6 C-3.34 6 -2.68 6 -2 6 C-1.7834375 5.071875 -1.7834375 5.071875 -1.5625 4.125 C-1 2 -1 2 0 0 Z " fill="#4A95D0" transform="translate(60,305)"/>
<path d="M0 0 C0.33 1.32 0.66 2.64 1 4 C0.01 4.33 -0.98 4.66 -2 5 C-2.28875 5.66 -2.5775 6.32 -2.875 7 C-4 9 -4 9 -6.625 9.75 C-7.40875 9.8325 -8.1925 9.915 -9 10 C-8.06409496 8.8944811 -7.12620142 7.79064547 -6.1875 6.6875 C-5.66542969 6.07261719 -5.14335938 5.45773437 -4.60546875 4.82421875 C-3.12827531 3.14575321 -1.59960869 1.56117966 0 0 Z " fill="#5496C8" transform="translate(74,256)"/>
<path d="M0 0 C0.99 0 1.98 0 3 0 C3 0.99 3 1.98 3 3 C3.66 3.33 4.32 3.66 5 4 C2.59660228 6.76390737 1.83736322 7.04065919 -2 8 C-1.34 5.36 -0.68 2.72 0 0 Z " fill="#3C454A" transform="translate(206,201)"/>
<path d="M0 0 C0.99 0.33 1.98 0.66 3 1 C4.17755913 3.94389782 4.03348696 4.89953913 3 8 C2.01 8 1.02 8 0 8 C-1.125 2.25 -1.125 2.25 0 0 Z " fill="#6E7377" transform="translate(225,316)"/>
<path d="M0 0 C0.66 0 1.32 0 2 0 C3.05404945 3.98196457 2.84098656 6.98195309 2 11 C1.34 11 0.68 11 0 11 C0 7.37 0 3.74 0 0 Z " fill="#444649" transform="translate(425,316)"/>
<path d="M0 0 C0.66 0.99 1.32 1.98 2 3 C1.67 3.99 1.34 4.98 1 6 C0.34 5.67 -0.32 5.34 -1 5 C-1 4.34 -1 3.68 -1 3 C-1.66 3 -2.32 3 -3 3 C-3 6.63 -3 10.26 -3 14 C-3.33 14 -3.66 14 -4 14 C-4 10.04 -4 6.08 -4 2 C-2.68 2 -1.36 2 0 2 C0 1.34 0 0.68 0 0 Z " fill="#DBDDDF" transform="translate(428,313)"/>
<path d="M0 0 C1.32 0.33 2.64 0.66 4 1 C4 1.99 4 2.98 4 4 C4.99 4 5.98 4 7 4 C7.33 5.65 7.66 7.3 8 9 C6.84775972 8.07038578 5.70340824 7.1309875 4.5625 6.1875 C3.60537109 5.40439453 3.60537109 5.40439453 2.62890625 4.60546875 C1 3 1 3 0 0 Z " fill="#5A99CA" transform="translate(112,261)"/>
<path d="M0 0 C1.5 1.375 1.5 1.375 3 3 C3 3.66 3 4.32 3 5 C-0.3 5 -3.6 5 -7 5 C-6.01 4.34 -5.02 3.68 -4 3 C-2.66209359 2.00612666 -1.32781878 1.0073108 0 0 Z " fill="#4F5356" transform="translate(302,233)"/>
<path d="M0 0 C2.0625 0.4375 2.0625 0.4375 4 1 C4.33 2.32 4.66 3.64 5 5 C1.7 5 -1.6 5 -5 5 C-5 4.67 -5 4.34 -5 4 C-3.02 4 -1.04 4 1 4 C1 3.34 1 2.68 1 2 C0.34 1.67 -0.32 1.34 -1 1 C-0.67 0.67 -0.34 0.34 0 0 Z " fill="#515558" transform="translate(433,233)"/>
<path d="M0 0 C0.66 0 1.32 0 2 0 C2 2.97 2 5.94 2 9 C0.68 8.34 -0.64 7.68 -2 7 C-1.125 2.25 -1.125 2.25 0 0 Z " fill="#2D393C" transform="translate(235,201)"/>
<path d="M0 0 C0 1.66666667 0 3.33333333 0 5 C-2.52475462 6.26237731 -4.31200466 6.09856404 -7.125 6.0625 C-8.03507813 6.05347656 -8.94515625 6.04445313 -9.8828125 6.03515625 C-10.58148438 6.02355469 -11.28015625 6.01195312 -12 6 C-12 5.67 -12 5.34 -12 5 C-9.36 5 -6.72 5 -4 5 C-4 4.34 -4 3.68 -4 3 C-2 1.375 -2 1.375 0 0 Z " fill="#474F54" transform="translate(206,293)"/>
<path d="M0 0 C0.33 0.99 0.66 1.98 1 3 C-2 3 -5 3 -8 3 C-8 2.34 -8 1.68 -8 1 C-5.29120665 -0.35439668 -2.99066732 -0.06501451 0 0 Z " fill="#4B4F51" transform="translate(380,316)"/>
<path d="M0 0 C0.66 0.33 1.32 0.66 2 1 C2.625 3.0625 2.625 3.0625 3 5 C2.01 5 1.02 5 0 5 C0 4.34 0 3.68 0 3 C-1.65 3 -3.3 3 -5 3 C-5 3.66 -5 4.32 -5 5 C-5.66 5 -6.32 5 -7 5 C-6.67 4.01 -6.34 3.02 -6 2 C-4.02 2 -2.04 2 0 2 C0 1.34 0 0.68 0 0 Z " fill="#3E4449" transform="translate(366,322)"/>
<path d="M0 0 C1.14926266 0.95421808 2.29430541 1.91352045 3.4375 2.875 C4.07558594 3.40867187 4.71367187 3.94234375 5.37109375 4.4921875 C7 6 7 6 8 8 C6.35 7.67 4.7 7.34 3 7 C2.67 6.01 2.34 5.02 2 4 C1.34 3.67 0.68 3.34 0 3 C0 2.01 0 1.02 0 0 Z " fill="#D7F2FE" transform="translate(135,285)"/>
<path d="M0 0 C2 4 2 4 2 7 C0.02 7.99 0.02 7.99 -2 9 C-1.34 6.03 -0.68 3.06 0 0 Z " fill="#3C464C" transform="translate(200,217)"/>
<path d="M0 0 C1.32 0.33 2.64 0.66 4 1 C1.69 3.31 -0.62 5.62 -3 8 C-3 5 -3 5 -2 3 C-1.34 3 -0.68 3 0 3 C0 2.01 0 1.02 0 0 Z " fill="#4D8EC0" transform="translate(82,285)"/>
<path d="M0 0 C0.33 0.99 0.66 1.98 1 3 C0.67 3.66 0.34 4.32 0 5 C-1.65 5 -3.3 5 -5 5 C-5 4.01 -5 3.02 -5 2 C-3.35 2 -1.7 2 0 2 C0 1.34 0 0.68 0 0 Z " fill="#DEE1E5" transform="translate(274,316)"/>
<path d="M0 0 C2.0625 0.4375 2.0625 0.4375 4 1 C1.03 3.475 1.03 3.475 -2 6 C-1.125 1.125 -1.125 1.125 0 0 Z " fill="#E7F7FE" transform="translate(76,250)"/>
<path d="M0 0 C0.99 0 1.98 0 3 0 C3.33 1.32 3.66 2.64 4 4 C3.34 4 2.68 4 2 4 C1.34 4.66 0.68 5.32 0 6 C0 5.34 0 4.68 0 4 C-0.66 3.67 -1.32 3.34 -2 3 C-1.34 2.01 -0.68 1.02 0 0 Z " fill="#E2E4E6" transform="translate(416,222)"/>
<path d="M0 0 C1.98 0.495 1.98 0.495 4 1 C3.34 2.65 2.68 4.3 2 6 C1.01 5.01 0.02 4.02 -1 3 C-0.67 2.01 -0.34 1.02 0 0 Z " fill="#2F3A3F" transform="translate(420,211)"/>
<path d="M0 0 C1.9451 2.91765 2.45276317 4.62537285 3 8 C2.01 8 1.02 8 0 8 C-0.79953138 4.71303767 -1.09658936 3.28976808 0 0 Z " fill="#474E53" transform="translate(188,202)"/>
<path d="M0 0 C0.66 0 1.32 0 2 0 C2.12375 0.78375 2.2475 1.5675 2.375 2.375 C2.79117993 5.14057822 2.79117993 5.14057822 5 7 C4.01 7.33 3.02 7.66 2 8 C-0.1519437 4.77208445 -0.20086443 3.71599191 0 0 Z " fill="#3A3D3F" transform="translate(371,319)"/>
<path d="M0 0 C0.66 0 1.32 0 2 0 C2.66 2.64 3.32 5.28 4 8 C2.68 8.33 1.36 8.66 0 9 C0.66 7.02 1.32 5.04 2 3 C1.34 2.67 0.68 2.34 0 2 C0 1.34 0 0.68 0 0 Z " fill="#2D373C" transform="translate(193,220)"/>
<path d="M0 0 C0.99 0.33 1.98 0.66 3 1 C2.67 2.32 2.34 3.64 2 5 C0.68 4.67 -0.64 4.34 -2 4 C-1.34 2.68 -0.68 1.36 0 0 Z " fill="#2E3B40" transform="translate(290,222)"/>
<path d="M0 0 C0.66 0 1.32 0 2 0 C2 0.66 2 1.32 2 2 C2.66 2.33 3.32 2.66 4 3 C3.01 3.33 2.02 3.66 1 4 C0.67 4.66 0.34 5.32 0 6 C-0.99 5.67 -1.98 5.34 -3 5 C-1.625 2.5 -1.625 2.5 0 0 Z " fill="#3E474A" transform="translate(421,201)"/>
</svg>
